<?xml version="1.0" encoding="UTF-8"?>
<svg id="Layer_1" xmlns="http://www.w3.org/2000/svg" version="1.1" viewBox="0 0 567.21 101.81">
  <!-- Generator: Adobe Illustrator 30.1.0, SVG Export Plug-In . SVG Version: 2.1.1 Build 136)  -->
  <defs>
    <style>
      .st0 {
        fill: #4d555b;
      }

      .st1 {
        fill: #373d41;
      }

      .st2 {
        fill: #cbdb2a;
      }
    </style>
  </defs>
  <g>
    <rect class="st2" x="71.85" width="34.23" height="34.23"/>
    <polygon class="st1" points="14.8 17.34 59.44 17.34 59.44 2.54 0 2.54 0 59.32 14.8 59.32 14.8 17.34"/>
    <path class="st1" d="M88.92,87.01v-40.77h14.8v48.54c0,3.88-3.15,7.03-7.03,7.03h-53.91v-14.8s46.14,0,46.14,0Z"/>
    <path class="st1" d="M31.89,85.6c-8.66,0-15.68-7.02-15.68-15.68h0c0-.19-.16-.35-.35-.35H0v.7c0,17.42,14.12,31.54,31.54,31.54h.99v-15.86c0-.19-.16-.35-.35-.35h-.29Z"/>
  </g>
  <g>
    <path class="st0" d="M183.23,87l-31.9-44.47v44.47h-14.2V17.66h13.55l32,44.57V17.66h14.12v69.34h-13.57Z"/>
    <path class="st0" d="M231.79,30.64v15.06h31.81v12.98h-31.81v15.36h36.32v12.98h-51.19V17.66h50.16v12.98h-35.29Z"/>
    <path class="st0" d="M342.09,87l-13.27-49.43-13.55,49.43h-15.34l-21.74-69.34h15.99l13.83,52.31,13.74-52.31h14.59l13.92,52.31,13.74-52.31h15.24l-21.84,69.34h-15.34.03Z"/>
    <path class="st0" d="M419.36,17.66c20.42,0,34.64,14.17,34.64,34.67s-14.4,34.66-35.2,34.66h-27.39V17.66h27.95ZM406.28,73.82h13.46c11.01,0,19.1-8.72,19.1-21.39s-8.48-21.59-19.77-21.59h-12.8v42.98h0Z"/>
    <path class="st0" d="M469.41,87V17.66h14.87v69.34h-14.87Z"/>
    <path class="st0" d="M517.51,73.52l-5.18,13.48h-15.34l28.61-69.34h15.34l28.14,69.34h-15.91l-5.18-13.48h-30.49,0ZM532.84,34l-10.45,26.94h20.8l-10.36-26.94h.01Z"/>
  </g>
</svg>