<?xml version="1.0" encoding="UTF-8"?>
<svg id="Layer_1" xmlns="http://www.w3.org/2000/svg" version="1.1" viewBox="0 0 375.5 134.86">
  <!-- Generator: Adobe Illustrator 30.3.0, SVG Export Plug-In . SVG Version: 2.1.3 Build 182)  -->
  <defs>
    <style>
      .st0 {
        fill: #006eb7;
      }

      .st1 {
        fill: #fff;
      }

      .st2 {
        fill: #5bcbf5;
      }
    </style>
  </defs>
  <g>
    <polygon class="st0" points="139.1 65.51 139.1 108.01 118.56 119.86 118.56 39.94 92.91 53.32 92.6 52.73 70.05 39.85 97.58 23.96 122.34 37.96 139.1 65.51"/>
    <polygon class="st2" points="139.1 0 139.1 65.51 122.34 37.96 97.58 23.96 139.1 0"/>
    <polygon class="st2" points="70.05 115.01 41.52 131.73 41.52 100.18 41.71 100.18 70.05 115.01"/>
    <polygon class="st2" points="97.26 76.62 70.05 93.08 69.55 65.51 92.91 53.32 118.56 39.94 118.56 119.86 97.58 131.97 97.58 97.66 97.58 77.15 97.26 76.62"/>
    <polygon class="st0" points="69.55 65.51 70.05 93.08 41.52 76.78 41.52 100.18 41.52 131.73 20.54 119.74 20.54 39.94 69.55 65.51"/>
    <polygon class="st1" points="97.58 77.15 97.58 97.66 70.05 115.01 41.71 100.18 41.52 100.18 41.52 76.78 70.05 93.08 97.26 76.62 97.58 77.15"/>
    <polygon class="st1" points="92.6 52.73 92.91 53.32 69.55 65.51 20.54 39.94 20.54 119.74 0 108.01 0 0 69.89 39.94 70.05 39.85 92.6 52.73"/>
  </g>
  <g>
    <path class="st1" d="M190.96,107.15l-.04-18.71-9.28,15.49h-2.34l-9.28-15.24v18.47h-5v-28.23h4.31l11.21,18.71,11.01-18.71h4.32l.04,28.23h-4.96Z"/>
    <path class="st1" d="M201.52,93.03c0-8.35,6.45-14.52,15.2-14.52s15.2,6.13,15.2,14.52-6.45,14.52-15.2,14.52-15.2-6.17-15.2-14.52ZM226.64,93.03c0-5.77-4.23-9.92-9.92-9.92s-9.92,4.15-9.92,9.92,4.23,9.92,9.92,9.92,9.92-4.15,9.92-9.92Z"/>
    <path class="st1" d="M262.57,78.92v28.23h-4.31l-15.57-19.12v19.12h-5.2v-28.23h4.31l15.57,19.12v-19.12h5.2Z"/>
    <path class="st1" d="M267.77,104.16l1.81-4.07c2.26,1.81,5.85,3.11,9.32,3.11,4.4,0,6.25-1.57,6.25-3.67,0-6.09-16.78-2.1-16.78-12.58,0-4.56,3.63-8.43,11.37-8.43,3.39,0,6.94.89,9.4,2.5l-1.65,4.07c-2.54-1.49-5.32-2.22-7.78-2.22-4.36,0-6.13,1.69-6.13,3.83,0,6.01,16.74,2.1,16.74,12.46,0,4.52-3.67,8.39-11.41,8.39-4.4,0-8.79-1.37-11.13-3.39Z"/>
    <path class="st1" d="M301.24,83.35h-9.36v-4.44h23.96v4.44h-9.36v23.79h-5.24v-23.79Z"/>
    <path class="st1" d="M340.96,102.75v4.4h-21.17v-28.23h20.61v4.4h-15.36v7.34h13.63v4.31h-13.63v7.78h15.93Z"/>
    <path class="st1" d="M365.27,107.15l-5.77-8.27c-.36.04-.73.04-1.09.04h-6.37v8.23h-5.24v-28.23h11.61c7.42,0,12.02,3.79,12.02,10.04,0,4.28-2.18,7.42-6.01,8.91l6.49,9.28h-5.65ZM358.17,83.35h-6.13v11.25h6.13c4.6,0,6.98-2.1,6.98-5.65s-2.38-5.61-6.98-5.61Z"/>
  </g>
  <g>
    <path class="st1" d="M166.31,60.94l1.83-4.11c2.28,1.83,5.9,3.13,9.4,3.13,4.43,0,6.31-1.59,6.31-3.7,0-6.14-16.92-2.12-16.92-12.69,0-4.6,3.66-8.5,11.47-8.5,3.42,0,7,.89,9.48,2.52l-1.67,4.11c-2.56-1.5-5.37-2.24-7.85-2.24-4.39,0-6.18,1.71-6.18,3.86,0,6.06,16.88,2.12,16.88,12.57,0,4.56-3.7,8.46-11.51,8.46-4.43,0-8.87-1.38-11.23-3.42Z"/>
    <path class="st1" d="M200.07,39.95h-9.44v-4.47h24.16v4.47h-9.44v24h-5.29v-24Z"/>
    <path class="st1" d="M218.54,51.54v-16.07h5.29v15.87c0,5.86,2.64,8.38,7.24,8.38s7.2-2.52,7.2-8.38v-15.87h5.21v16.07c0,8.3-4.68,12.81-12.45,12.81s-12.49-4.52-12.49-12.81Z"/>
    <path class="st1" d="M250.88,35.47h12.45c9.23,0,15.54,5.69,15.54,14.24s-6.31,14.24-15.54,14.24h-12.45v-28.48ZM263.08,59.47c6.35,0,10.45-3.87,10.45-9.76s-4.11-9.76-10.45-9.76h-6.92v19.53h6.92Z"/>
    <path class="st1" d="M284.48,35.47h5.29v28.48h-5.29v-28.48Z"/>
    <path class="st1" d="M295.42,49.71c0-8.42,6.51-14.64,15.34-14.64s15.34,6.18,15.34,14.64-6.51,14.65-15.34,14.65-15.34-6.22-15.34-14.65ZM320.77,49.71c0-5.82-4.27-10.01-10.01-10.01s-10.01,4.19-10.01,10.01,4.27,10.01,10.01,10.01,10.01-4.19,10.01-10.01Z"/>
  </g>
  <g>
    <path class="st1" d="M170.29,132.12c-2.63,0-4.48-2.07-4.5-5.32.01-3.23,1.88-5.3,4.5-5.29,2.61-.01,4.48,2.06,4.5,5.29-.01,3.24-1.88,5.32-4.5,5.32ZM170.29,131.16c2,0,3.51-1.59,3.51-4.35s-1.5-4.35-3.51-4.35-3.49,1.61-3.5,4.35c.01,2.75,1.5,4.35,3.5,4.35Z"/>
    <path class="st1" d="M177.56,131.97h-.96v-7.74h.93v1.23h.09c.36-.8,1.14-1.33,2.28-1.34,1.56.01,2.63,1.01,2.63,2.86v4.99h-.96v-4.94c-.01-1.24-.76-2.03-1.93-2.02-1.2-.01-2.07.8-2.07,2.13v4.82Z"/>
    <path class="st1" d="M184.22,128.15c.01-2.35,1.4-4.03,3.42-4.03,1.69,0,3.3,1.2,3.3,3.83v.47h-5.73c.04,1.74,1.04,2.85,2.57,2.86,1.07-.01,1.69-.55,1.96-1.05h1.05c-.35,1.07-1.45,1.91-3.01,1.93-2.19-.01-3.55-1.65-3.56-4ZM189.94,127.56c.01-1.46-.93-2.57-2.28-2.57s-2.38,1.17-2.45,2.57h4.73Z"/>
    <path class="st1" d="M196.36,121.63h6.02v.93h-4.99v3.8h4.53v.88h-4.53v4.73h-1.02v-10.34Z"/>
    <path class="st1" d="M203.87,128.15c.01-2.39,1.42-4.03,3.45-4.03s3.43,1.64,3.45,4.03c-.01,2.35-1.42,3.99-3.45,4-2.03-.01-3.43-1.65-3.45-4ZM207.32,131.27c1.59-.01,2.45-1.43,2.45-3.13s-.86-3.15-2.45-3.15-2.47,1.45-2.45,3.15c-.01,1.69.86,3.11,2.45,3.13Z"/>
    <path class="st1" d="M212.45,124.23h.93v1.2h.06c.32-.79,1.15-1.31,2.1-1.31h.5v.99c-.07-.01-.32-.06-.55-.06-1.2,0-2.07.82-2.07,1.96v4.97h-.96v-7.74Z"/>
    <path class="st1" d="M217.33,124.23h.93v1.2h.09c.31-.82,1.07-1.3,2.07-1.31,1.07.01,1.75.54,2.1,1.4h.06c.35-.85,1.17-1.39,2.31-1.4,1.42.01,2.34.92,2.34,2.66v5.2h-.96v-5.17c-.01-1.21-.69-1.8-1.69-1.78-1.15-.01-1.81.77-1.81,1.87v5.08h-.96v-5.26c-.01-1.02-.63-1.71-1.67-1.69-1.04-.01-1.84.82-1.84,2.02v4.94h-.96v-7.74Z"/>
    <path class="st1" d="M229.3,131.27c0-.41.35-.74.76-.76.42.01.77.35.76.76.01.44-.34.77-.76.79-.41-.01-.76-.35-.76-.79Z"/>
    <path class="st1" d="M237.83,121.63l3.68,8.88h.09l3.71-8.88h1.17v10.34h-.96v-8.24h-.09l-3.42,8.24h-.91l-3.42-8.24h-.09v8.24h-.96v-10.34h1.2Z"/>
    <path class="st1" d="M253.66,124.23h.96v7.74h-.96v-1.29h-.06c-.37.79-1.17,1.39-2.31,1.37-1.49.01-2.56-.98-2.54-2.83v-4.99h.96v4.94c0,1.18.77,1.97,1.87,1.96,1.01.01,2.09-.73,2.07-2.16v-4.73Z"/>
    <path class="st1" d="M257.69,131.97h-.96v-10.34h.96v10.34Z"/>
    <path class="st1" d="M262.89,125.05h-1.61v4.85c-.01.98.54,1.26,1.14,1.26.18,0,.47-.01.64-.03v.91c-.18.03-.41.06-.73.06-1.02,0-2.03-.66-2.04-1.96v-5.08h-1.14v-.82h1.14v-1.87h.99v1.87h1.61v.82Z"/>
    <path class="st1" d="M265.17,121.55c.39.01.72.31.73.67-.01.39-.34.69-.73.7-.38-.01-.7-.31-.7-.7,0-.37.32-.66.7-.67ZM264.67,124.23h.96v7.74h-.96v-7.74Z"/>
    <path class="st1" d="M267.77,124.23h.93v1.43h.12c.31-.66.92-1.55,2.34-1.55,1.93,0,3.21,1.59,3.21,4s-1.3,4.02-3.18,4.03c-1.42-.01-2.06-.91-2.37-1.58h-.09v4.29h-.96v-10.63ZM271.04,131.24c1.53.01,2.37-1.36,2.37-3.13s-.82-3.11-2.37-3.13c-1.49.01-2.32,1.29-2.31,3.13-.01,1.83.83,3.14,2.31,3.13Z"/>
    <path class="st1" d="M277.05,131.97h-.96v-10.34h.96v10.34Z"/>
    <path class="st1" d="M278.75,128.15c.01-2.35,1.4-4.03,3.42-4.03,1.69,0,3.3,1.2,3.3,3.83v.47h-5.73c.04,1.74,1.04,2.85,2.57,2.86,1.07-.01,1.69-.55,1.96-1.05h1.05c-.35,1.07-1.45,1.91-3.01,1.93-2.19-.01-3.55-1.65-3.56-4ZM284.47,127.56c.01-1.46-.93-2.57-2.28-2.57s-2.38,1.17-2.45,2.57h4.73Z"/>
    <path class="st1" d="M290.89,121.63h3.39c2.22.01,3.34,1.4,3.36,3.21-.01,1.83-1.14,3.23-3.36,3.21h-2.37v3.91h-1.02v-10.34ZM294.25,127.15c1.61,0,2.38-.98,2.37-2.31.01-1.33-.76-2.29-2.39-2.28h-2.31v4.59h2.34Z"/>
    <path class="st1" d="M298.98,128.15c.01-2.35,1.4-4.03,3.42-4.03,1.69,0,3.3,1.2,3.3,3.83v.47h-5.73c.04,1.74,1.04,2.85,2.57,2.86,1.07-.01,1.69-.55,1.96-1.05h1.05c-.35,1.07-1.45,1.91-3.01,1.93-2.19-.01-3.55-1.65-3.56-4ZM304.71,127.56c.01-1.46-.93-2.57-2.28-2.57s-2.38,1.17-2.45,2.57h4.73Z"/>
    <path class="st1" d="M307.42,124.23h.93v1.2h.06c.32-.79,1.15-1.31,2.1-1.31h.5v.99c-.07-.01-.32-.06-.55-.06-1.2,0-2.07.82-2.07,1.96v4.97h-.96v-7.74Z"/>
    <path class="st1" d="M314.9,124.96c-1.04,0-1.75.57-1.75,1.31,0,.6.44,1.01,1.37,1.26l1.2.29c1.3.31,1.96.99,1.96,2.05,0,1.31-1.08,2.26-2.92,2.28-1.64-.01-2.64-.77-2.83-2.13h.99c.16.83.79,1.26,1.84,1.26,1.17,0,1.93-.53,1.93-1.34,0-.63-.42-1.05-1.34-1.26l-1.17-.29c-1.31-.31-2-1.04-2.02-2.05.01-1.3,1.12-2.22,2.75-2.22,1.52.01,2.48.83,2.66,2.05h-.96c-.16-.73-.75-1.2-1.69-1.2Z"/>
    <path class="st1" d="M319.37,124.23h.93v1.43h.12c.31-.66.92-1.55,2.34-1.55,1.93,0,3.21,1.59,3.21,4s-1.3,4.02-3.18,4.03c-1.42-.01-2.06-.91-2.37-1.58h-.09v4.29h-.96v-10.63ZM322.64,131.24c1.53.01,2.37-1.36,2.37-3.13s-.82-3.11-2.37-3.13c-1.49.01-2.32,1.29-2.31,3.13-.01,1.83.83,3.14,2.31,3.13Z"/>
    <path class="st1" d="M327.28,128.15c.01-2.35,1.4-4.03,3.42-4.03,1.69,0,3.3,1.2,3.3,3.83v.47h-5.72c.04,1.74,1.04,2.85,2.57,2.86,1.07-.01,1.69-.55,1.96-1.05h1.05c-.35,1.07-1.45,1.91-3.01,1.93-2.19-.01-3.55-1.65-3.56-4ZM333.01,127.56c.01-1.46-.93-2.57-2.28-2.57s-2.38,1.17-2.45,2.57h4.73Z"/>
    <path class="st1" d="M335.31,128.15c.01-2.35,1.4-4.03,3.45-4.03,1.58,0,2.79.98,2.98,2.42h-.96c-.19-.85-.91-1.55-2.01-1.55-1.45,0-2.47,1.27-2.45,3.13-.01,1.85.98,3.14,2.45,3.13,1.02.01,1.81-.58,2.01-1.55h.96c-.19,1.4-1.33,2.44-2.98,2.45-2.09-.01-3.43-1.71-3.45-4Z"/>
    <path class="st1" d="M346.5,125.05h-1.61v4.85c-.01.98.54,1.26,1.14,1.26.18,0,.47-.01.64-.03v.91c-.17.03-.41.06-.73.06-1.02,0-2.03-.66-2.04-1.96v-5.08h-1.14v-.82h1.14v-1.87h.99v1.87h1.61v.82Z"/>
    <path class="st1" d="M348.78,121.55c.39.01.72.31.73.67-.01.39-.34.69-.73.7-.38-.01-.7-.31-.7-.7,0-.37.32-.66.7-.67ZM348.28,124.23h.96v7.74h-.96v-7.74Z"/>
    <path class="st1" d="M354.62,131.97h-1.05l-2.8-7.74h1.05l2.25,6.48h.06l2.28-6.48h1.05l-2.83,7.74Z"/>
    <path class="st1" d="M358.5,128.15c.01-2.35,1.4-4.03,3.42-4.03,1.69,0,3.3,1.2,3.3,3.83v.47h-5.72c.04,1.74,1.04,2.85,2.57,2.86,1.07-.01,1.69-.55,1.96-1.05h1.05c-.35,1.07-1.45,1.91-3.01,1.93-2.19-.01-3.55-1.65-3.56-4ZM364.23,127.56c.01-1.46-.93-2.57-2.28-2.57s-2.38,1.17-2.45,2.57h4.73Z"/>
    <path class="st1" d="M369.54,124.96c-1.04,0-1.75.57-1.75,1.31,0,.6.44,1.01,1.37,1.26l1.2.29c1.3.31,1.96.99,1.96,2.05,0,1.31-1.08,2.26-2.92,2.28-1.64-.01-2.64-.77-2.83-2.13h.99c.16.83.79,1.26,1.84,1.26,1.17,0,1.93-.53,1.93-1.34,0-.63-.42-1.05-1.34-1.26l-1.17-.29c-1.31-.31-2-1.04-2.02-2.05.01-1.3,1.12-2.22,2.75-2.22,1.52.01,2.48.83,2.66,2.05h-.96c-.16-.73-.75-1.2-1.69-1.2Z"/>
    <path class="st1" d="M373.98,131.27c0-.41.35-.74.76-.76.42.01.77.35.76.76.01.44-.34.77-.76.79-.41-.01-.76-.35-.76-.79Z"/>
  </g>
</svg>