<?xml version="1.0" encoding="UTF-8"?>
<svg id="Layer_1" xmlns="http://www.w3.org/2000/svg" version="1.1" viewBox="0 0 139.1 131.97">
  <!-- Generator: Adobe Illustrator 30.3.0, SVG Export Plug-In . SVG Version: 2.1.3 Build 182)  -->
  <defs>
    <style>
      .st0 {
        fill: #006eb7;
      }

      .st1 {
        fill: #fff;
      }

      .st2 {
        fill: #5bcbf5;
      }
    </style>
  </defs>
  <polygon class="st0" points="139.1 65.51 139.1 108.01 118.56 119.86 118.56 39.94 92.91 53.32 92.6 52.73 70.05 39.85 97.58 23.96 122.34 37.96 139.1 65.51"/>
  <polygon class="st2" points="139.1 0 139.1 65.51 122.34 37.96 97.58 23.96 139.1 0"/>
  <polygon class="st2" points="70.05 115.01 41.52 131.73 41.52 100.18 41.71 100.18 70.05 115.01"/>
  <polygon class="st2" points="97.26 76.62 70.05 93.08 69.55 65.51 92.91 53.32 118.56 39.94 118.56 119.86 97.58 131.97 97.58 97.66 97.58 77.15 97.26 76.62"/>
  <polygon class="st0" points="69.55 65.51 70.05 93.08 41.52 76.78 41.52 100.18 41.52 131.73 20.54 119.74 20.54 39.94 69.55 65.51"/>
  <polygon class="st1" points="97.58 77.15 97.58 97.66 70.05 115.01 41.71 100.18 41.52 100.18 41.52 76.78 70.05 93.08 97.26 76.62 97.58 77.15"/>
  <polygon class="st1" points="92.6 52.73 92.91 53.32 69.55 65.51 20.54 39.94 20.54 119.74 0 108.01 0 0 69.89 39.94 70.05 39.85 92.6 52.73"/>
</svg>